<svg xmlns="http://www.w3.org/2000/svg" width="40" height="40" viewBox="0 0 40 40" fill="none">
<g style="mix-blend-mode:luminosity">
<path d="M18.8382 34.3564L7.6891 29.3533C7.22556 29.146 6.8319 28.809 6.5556 28.3829C6.27931 27.9569 6.13218 27.46 6.13196 26.9522V12.8787C6.13189 12.3667 6.28105 11.8657 6.56119 11.437C6.84133 11.0084 7.24031 10.6707 7.70934 10.4652L19.3163 5.38422C19.6536 5.23652 20.0182 5.16118 20.3864 5.16306C20.7547 5.16494 21.1184 5.24399 21.4542 5.39512L32.6034 10.42C33.0668 10.6275 33.4604 10.9646 33.7366 11.3906C34.0129 11.8166 34.1601 12.3134 34.1605 12.8211V26.8167C34.1603 27.3269 34.012 27.8261 33.7337 28.2537C33.4553 28.6813 33.0589 29.0189 32.5925 29.2256L20.984 34.3642C20.6458 34.5135 20.28 34.59 19.9103 34.5887C19.5406 34.5873 19.1753 34.5082 18.8382 34.3564Z" fill="#1C272E"/>
<g opacity="0.5">
<path d="M11.0136 18.4066C11.0203 18.4542 11.0133 18.5027 10.9935 18.5464C10.9737 18.5902 10.9419 18.6275 10.9018 18.6539C10.8617 18.6803 10.8149 18.6948 10.7669 18.6957C10.7189 18.6966 10.6716 18.6838 10.6305 18.6589L7.37765 17.2279C7.26729 17.1728 7.17352 17.0895 7.10594 16.9864C7.03836 16.8832 6.9994 16.764 6.99304 16.6408V12.667C6.98647 12.6193 6.99359 12.5708 7.01357 12.527C7.03355 12.4832 7.06556 12.446 7.10588 12.4197C7.14619 12.3934 7.19315 12.3792 7.24126 12.3786C7.28938 12.378 7.33668 12.391 7.37765 12.4163L10.6321 13.8395C10.7414 13.8951 10.8343 13.9784 10.9012 14.0812C10.9682 14.1839 11.0069 14.3025 11.0136 14.425V18.4066Z" fill="white"/>
</g>
<path d="M19.922 22.3041C19.9286 22.3518 19.9214 22.4004 19.9015 22.4441C19.8815 22.4879 19.8495 22.5251 19.8092 22.5514C19.7688 22.5777 19.7219 22.5919 19.6738 22.5926C19.6257 22.5932 19.5784 22.5801 19.5374 22.5548L16.283 21.1316C16.173 21.0763 16.0796 20.9928 16.0123 20.8897C15.9451 20.7866 15.9063 20.6675 15.8999 20.5446V16.5645C15.8936 16.5171 15.9008 16.4688 15.9207 16.4253C15.9406 16.3818 15.9724 16.3448 16.0125 16.3185C16.0525 16.2923 16.0992 16.278 16.147 16.2771C16.1949 16.2763 16.242 16.289 16.283 16.3138L19.5374 17.737C19.6478 17.792 19.7415 17.8754 19.8091 17.9785C19.8767 18.0817 19.9156 18.2009 19.922 18.3241V22.3041Z" fill="#F70628"/>
<g opacity="0.5">
<path d="M15.4748 20.3562C15.4811 20.4036 15.4739 20.4519 15.454 20.4954C15.4341 20.5389 15.4023 20.5759 15.3622 20.6021C15.3222 20.6283 15.2755 20.6427 15.2277 20.6435C15.1798 20.6444 15.1327 20.6317 15.0917 20.6069L11.8373 19.1836C11.727 19.1285 11.6334 19.0451 11.5658 18.942C11.4982 18.8389 11.4592 18.7197 11.4527 18.5966V14.615C11.4461 14.5673 11.4532 14.5188 11.4732 14.475C11.4932 14.4312 11.5252 14.394 11.5655 14.3677C11.6058 14.3414 11.6528 14.3272 11.7009 14.3266C11.749 14.3259 11.7963 14.339 11.8373 14.3643L15.0917 15.7891C15.2019 15.8442 15.2954 15.9276 15.3628 16.0307C15.4301 16.1339 15.4687 16.2531 15.4748 16.3761V20.3562Z" fill="white"/>
</g>
<g opacity="0.5">
<path d="M11.0133 23.9235C11.0196 23.9709 11.0124 24.0192 10.9925 24.0627C10.9725 24.1063 10.9407 24.1433 10.9007 24.1695C10.8606 24.1957 10.814 24.21 10.7661 24.2109C10.7183 24.2117 10.6711 24.199 10.6302 24.1742L7.37733 22.7572C7.26697 22.7022 7.1732 22.6188 7.10562 22.5157C7.03804 22.4126 6.99908 22.2933 6.99272 22.1702V18.1901C6.98646 18.1425 6.99375 18.0941 7.01376 18.0504C7.03377 18.0067 7.06569 17.9696 7.10586 17.9433C7.14602 17.9169 7.1928 17.9024 7.24082 17.9015C7.28884 17.9005 7.33615 17.9131 7.37733 17.9378L10.6318 19.3626C10.7417 19.418 10.8351 19.5014 10.9024 19.6045C10.9697 19.7076 11.0084 19.8267 11.0148 19.9497L11.0133 23.9235Z" fill="white"/>
</g>
<g opacity="0.5">
<path d="M19.922 27.8273C19.9286 27.875 19.9214 27.9235 19.9015 27.9673C19.8815 28.0111 19.8495 28.0483 19.8092 28.0746C19.7688 28.1008 19.7219 28.1151 19.6738 28.1157C19.6257 28.1163 19.5784 28.1032 19.5374 28.078L16.283 26.6548C16.1731 26.5993 16.0798 26.5158 16.0126 26.4127C15.9453 26.3096 15.9064 26.1906 15.8999 26.0677V22.0861C15.8936 22.0387 15.9008 21.9904 15.9207 21.9469C15.9406 21.9034 15.9724 21.8664 16.0125 21.8401C16.0525 21.8139 16.0992 21.7996 16.147 21.7987C16.1949 21.7979 16.242 21.8106 16.283 21.8354L19.5374 23.2602C19.6478 23.3152 19.7415 23.3985 19.8091 23.5017C19.8767 23.6048 19.9156 23.7241 19.922 23.8472V27.8273Z" fill="white"/>
</g>
<g opacity="0.5">
<path d="M15.4748 25.8778C15.4815 25.9254 15.4745 25.9739 15.4548 26.0176C15.435 26.0614 15.4032 26.0987 15.3631 26.1251C15.323 26.1515 15.2762 26.166 15.2281 26.1669C15.1801 26.1677 15.1328 26.155 15.0918 26.1301L11.8296 24.7022C11.7192 24.6471 11.6254 24.5638 11.5578 24.4607C11.4903 24.3575 11.4513 24.2383 11.4449 24.1151V20.1382C11.4384 20.0905 11.4455 20.0419 11.4655 19.9982C11.4855 19.9544 11.5175 19.9172 11.5578 19.8909C11.5981 19.8646 11.6451 19.8504 11.6932 19.8498C11.7413 19.8491 11.7886 19.8622 11.8296 19.8875L15.084 21.3107C15.1957 21.365 15.2909 21.4482 15.3596 21.5517C15.4284 21.6552 15.4681 21.7752 15.4748 21.8993V25.8778Z" fill="white"/>
</g>
<g opacity="0.5">
<path d="M11.0132 29.4529C11.0196 29.5004 11.0124 29.5486 10.9924 29.5922C10.9725 29.6357 10.9407 29.6727 10.9007 29.6989C10.8606 29.7251 10.814 29.7395 10.7661 29.7403C10.7182 29.7411 10.6711 29.7284 10.6302 29.7036L7.37731 28.2835C7.26695 28.2285 7.17318 28.1452 7.1056 28.042C7.03802 27.9389 6.99906 27.8196 6.9927 27.6965V23.7117C6.98508 23.6637 6.99142 23.6145 7.01097 23.5699C7.03052 23.5254 7.06246 23.4874 7.10298 23.4605C7.1435 23.4336 7.1909 23.4189 7.23954 23.4182C7.28817 23.4174 7.336 23.4307 7.37731 23.4564L10.6317 24.8796C10.7416 24.9351 10.8349 25.0186 10.9022 25.1216C10.9694 25.2247 11.0083 25.3437 11.0148 25.4666L11.0132 29.4529Z" fill="white"/>
<path d="M19.9221 33.3489C19.9284 33.3965 19.9211 33.4449 19.9011 33.4886C19.881 33.5322 19.8491 33.5694 19.809 33.5957C19.7688 33.6221 19.722 33.6365 19.674 33.6375C19.626 33.6385 19.5787 33.6258 19.5375 33.6011L16.2831 32.1763C16.1731 32.121 16.0797 32.0375 16.0124 31.9344C15.9452 31.8313 15.9064 31.7123 15.9 31.5893V27.6092C15.8937 27.5618 15.9009 27.5135 15.9208 27.47C15.9407 27.4265 15.9725 27.3895 16.0126 27.3633C16.0526 27.3371 16.0993 27.3227 16.1471 27.3219C16.195 27.321 16.2421 27.3338 16.2831 27.3585L19.5375 28.7818C19.6477 28.8369 19.7414 28.9203 19.809 29.0234C19.8766 29.1265 19.9156 29.2457 19.9221 29.3688V33.3489Z" fill="white"/>
<path d="M15.4748 31.3978C15.4811 31.4452 15.4739 31.4935 15.454 31.537C15.4341 31.5806 15.4022 31.6176 15.3622 31.6438C15.3221 31.67 15.2755 31.6843 15.2276 31.6852C15.1798 31.686 15.1327 31.6733 15.0917 31.6485L11.8373 30.2253C11.7269 30.1703 11.6332 30.0869 11.5656 29.9838C11.498 29.8806 11.459 29.7614 11.4527 29.6382V25.6613C11.4464 25.6137 11.4537 25.5653 11.4737 25.5216C11.4937 25.4779 11.5257 25.4408 11.5658 25.4145C11.606 25.3881 11.6528 25.3736 11.7008 25.3727C11.7488 25.3717 11.7961 25.3843 11.8373 25.409L15.0917 26.8338C15.2019 26.8889 15.2954 26.9723 15.3628 27.0755C15.4301 27.1786 15.4687 27.2978 15.4748 27.4209V31.3978Z" fill="white"/>
</g>
<path d="M29.2769 18.4066C29.2706 18.4542 29.2779 18.5027 29.2979 18.5463C29.318 18.59 29.3499 18.6271 29.39 18.6535C29.4302 18.6798 29.477 18.6943 29.525 18.6952C29.573 18.6962 29.6203 18.6836 29.6615 18.6589L32.9144 17.2279C33.0244 17.1725 33.1177 17.089 33.185 16.9859C33.2523 16.8828 33.2911 16.7638 33.2974 16.6408V12.667C33.3038 12.6195 33.2966 12.5713 33.2766 12.5278C33.2567 12.4842 33.2249 12.4472 33.1849 12.421C33.1448 12.3948 33.0982 12.3805 33.0503 12.3796C33.0024 12.3788 32.9553 12.3915 32.9144 12.4163L29.66 13.8395C29.5502 13.8947 29.457 13.978 29.3897 14.0808C29.3225 14.1836 29.2835 14.3023 29.2769 14.425V18.4066Z" fill="#00A83C"/>
<path d="M20.3689 22.3041C20.3623 22.3518 20.3694 22.4004 20.3894 22.4441C20.4094 22.4879 20.4414 22.5251 20.4817 22.5514C20.522 22.5777 20.569 22.5919 20.6171 22.5926C20.6652 22.5932 20.7125 22.5801 20.7535 22.5548L24.0079 21.1316C24.1183 21.0766 24.2121 20.9933 24.2796 20.8901C24.3472 20.787 24.3862 20.6677 24.3925 20.5446V16.5645C24.3991 16.5168 24.392 16.4683 24.372 16.4245C24.352 16.3807 24.32 16.3435 24.2797 16.3172C24.2394 16.291 24.1924 16.2767 24.1443 16.2761C24.0962 16.2755 24.0489 16.2886 24.0079 16.3138L20.7535 17.737C20.6431 17.792 20.5494 17.8754 20.4818 17.9785C20.4142 18.0817 20.3753 18.2009 20.3689 18.3241V22.3041Z" fill="#00A83C"/>
<path d="M24.818 20.3561C24.8116 20.4036 24.8188 20.4518 24.8388 20.4953C24.8587 20.5389 24.8905 20.5759 24.9306 20.6021C24.9706 20.6283 25.0173 20.6426 25.0651 20.6435C25.113 20.6443 25.1601 20.6316 25.201 20.6068L28.4555 19.1836C28.5657 19.1284 28.6594 19.0451 28.727 18.9419C28.7945 18.8388 28.8335 18.7196 28.8401 18.5965V14.6149C28.8466 14.5672 28.8395 14.5187 28.8195 14.4749C28.7996 14.4311 28.7675 14.3939 28.7272 14.3677C28.6869 14.3414 28.64 14.3271 28.5918 14.3265C28.5437 14.3259 28.4964 14.339 28.4555 14.3642L25.201 15.789C25.0911 15.8444 24.9977 15.9278 24.9304 16.0309C24.8631 16.134 24.8243 16.2531 24.818 16.376V20.3561Z" fill="#00A83C"/>
<path d="M29.2773 23.9236C29.2707 23.9712 29.2779 24.0198 29.2978 24.0636C29.3178 24.1074 29.3498 24.1446 29.3902 24.1708C29.4305 24.1971 29.4774 24.2114 29.5255 24.212C29.5737 24.2126 29.621 24.1995 29.6619 24.1743L32.9164 22.751C33.0262 22.6956 33.1195 22.6121 33.1868 22.509C33.254 22.4059 33.2929 22.2869 33.2994 22.164V18.1902C33.3061 18.1426 33.2991 18.0941 33.2793 18.0503C33.2596 18.0066 33.2278 17.9693 33.1877 17.9429C33.1475 17.9165 33.1008 17.902 33.0527 17.9011C33.0047 17.9002 32.9574 17.913 32.9164 17.9379L29.6619 19.3627C29.5516 19.4177 29.4578 19.501 29.3902 19.6042C29.3226 19.7073 29.2837 19.8266 29.2773 19.9497V23.9236Z" fill="#F70628"/>
<path d="M20.3689 27.8273C20.3623 27.875 20.3694 27.9235 20.3894 27.9673C20.4094 28.0111 20.4414 28.0483 20.4817 28.0746C20.522 28.1008 20.569 28.1151 20.6171 28.1157C20.6652 28.1163 20.7125 28.1032 20.7535 28.078L24.0079 26.6548C24.1182 26.5996 24.2119 26.5163 24.2794 26.4131C24.347 26.31 24.386 26.1908 24.3925 26.0677V22.0861C24.3991 22.0384 24.392 21.9899 24.372 21.9461C24.352 21.9023 24.32 21.8651 24.2797 21.8389C24.2394 21.8126 24.1924 21.7983 24.1443 21.7977C24.0962 21.7971 24.0489 21.8102 24.0079 21.8354L20.7535 23.2602C20.6431 23.3152 20.5494 23.3985 20.4818 23.5017C20.4142 23.6048 20.3753 23.7241 20.3689 23.8472V27.8273Z" fill="#00A83C"/>
<path d="M24.8172 25.8777C24.8105 25.9253 24.8175 25.9738 24.8373 26.0176C24.8571 26.0613 24.8889 26.0986 24.929 26.125C24.9691 26.1514 25.0159 26.1659 25.0639 26.1668C25.1119 26.1677 25.1592 26.1549 25.2003 26.13L28.4609 24.7021C28.5713 24.6471 28.6651 24.5637 28.7326 24.4606C28.8002 24.3575 28.8392 24.2382 28.8456 24.1151V20.1381C28.8521 20.0904 28.845 20.0419 28.825 19.9981C28.805 19.9543 28.773 19.9171 28.7327 19.8909C28.6924 19.8646 28.6454 19.8503 28.5973 19.8497C28.5492 19.8491 28.5019 19.8622 28.4609 19.8874L25.2065 21.3106C25.0953 21.3654 25.0006 21.4488 24.9322 21.5522C24.8637 21.6557 24.8241 21.7754 24.8172 21.8992V25.8777Z" fill="#00A83C"/>
<path d="M29.2773 29.453C29.2707 29.5006 29.2779 29.5492 29.2978 29.593C29.3178 29.6367 29.3498 29.6739 29.3902 29.7002C29.4305 29.7265 29.4774 29.7408 29.5255 29.7414C29.5737 29.742 29.621 29.7289 29.6619 29.7037L32.9148 28.2835C33.0248 28.2282 33.1181 28.1447 33.1854 28.0416C33.2527 27.9385 33.2915 27.8195 33.2978 27.6965V23.7118C33.3052 23.664 33.2988 23.615 33.2793 23.5708C33.2598 23.5265 33.228 23.4887 33.1878 23.4619C33.1475 23.435 33.1005 23.4203 33.0521 23.4193C33.0037 23.4183 32.9561 23.4312 32.9148 23.4564L29.6604 24.8796C29.5501 24.9348 29.4564 25.0181 29.3889 25.1213C29.3213 25.2244 29.2823 25.3436 29.2758 25.4667L29.2773 29.453Z" fill="#00A83C"/>
<path d="M20.3689 33.3489C20.3626 33.3966 20.3699 33.445 20.39 33.4886C20.41 33.5323 20.4419 33.5694 20.482 33.5958C20.5222 33.6221 20.569 33.6366 20.617 33.6376C20.665 33.6385 20.7123 33.6259 20.7535 33.6012L24.008 32.1764C24.1183 32.1214 24.2121 32.0381 24.2797 31.9349C24.3472 31.8318 24.3862 31.7125 24.3926 31.5894V27.6093C24.3991 27.5616 24.392 27.5131 24.372 27.4693C24.3521 27.4255 24.32 27.3883 24.2797 27.362C24.2394 27.3358 24.1925 27.3215 24.1443 27.3209C24.0962 27.3203 24.0489 27.3334 24.008 27.3586L20.7535 28.7818C20.6433 28.837 20.5496 28.9203 20.482 29.0235C20.4145 29.1266 20.3754 29.2458 20.3689 29.3689V33.3489Z" fill="#00A83C"/>
<path d="M24.818 31.3978C24.8116 31.4452 24.8188 31.4935 24.8388 31.537C24.8587 31.5806 24.8905 31.6176 24.9306 31.6438C24.9706 31.67 25.0173 31.6843 25.0651 31.6852C25.113 31.686 25.1601 31.6733 25.201 31.6485L28.4555 30.2253C28.5657 30.1701 28.6594 30.0868 28.727 29.9836C28.7945 29.8805 28.8335 29.7613 28.8401 29.6382V25.6613C28.8463 25.6137 28.839 25.5653 28.819 25.5216C28.799 25.4779 28.7671 25.4408 28.7269 25.4145C28.6868 25.3881 28.64 25.3736 28.592 25.3727C28.544 25.3717 28.4966 25.3843 28.4555 25.409L25.201 26.8338C25.0911 26.8892 24.9977 26.9726 24.9304 27.0757C24.8631 27.1788 24.8243 27.2979 24.818 27.4209V31.3978Z" fill="#00A83C"/>
<path d="M12.0892 9.93575C11.8774 9.84232 11.879 9.69128 12.0892 9.5994L15.244 8.23223C15.4914 8.13914 15.7642 8.13914 16.0117 8.23223L19.0387 9.57138C19.2505 9.66481 19.249 9.81585 19.0387 9.90772L15.884 11.278C15.6365 11.3711 15.3637 11.3711 15.1163 11.278L12.0892 9.93575Z" fill="white"/>
<path d="M16.8035 7.89278C16.5933 7.79935 16.5933 7.64831 16.8035 7.55644L19.9598 6.18926C20.2072 6.09617 20.4801 6.09617 20.7275 6.18926L23.7546 7.52841C23.9648 7.62028 23.9648 7.77288 23.7546 7.86319L20.5982 9.23504C20.3508 9.32813 20.078 9.32813 19.8306 9.23504L16.8035 7.89278Z" fill="#F70628"/>
<path d="M16.6687 11.9616C16.4585 11.8698 16.4585 11.7172 16.6687 11.6268L19.8344 10.2581C20.0818 10.165 20.3546 10.165 20.602 10.2581L23.6291 11.5973C23.8409 11.6907 23.8393 11.8417 23.6291 11.9336L20.4572 13.3054C20.2096 13.3973 19.9372 13.3973 19.6896 13.3054L16.6687 11.9616Z" fill="white"/>
<path d="M7.37766 11.9787C7.16745 11.8853 7.16745 11.7342 7.37766 11.6424L10.534 10.2752C10.7814 10.1821 11.0542 10.1821 11.3017 10.2752L14.3272 11.6221C14.5374 11.7156 14.5374 11.8666 14.3272 11.9585L11.1693 13.321C10.9219 13.4141 10.6491 13.4141 10.4016 13.321L7.37766 11.9787Z" fill="white"/>
<path d="M11.9557 14.0061C11.7439 13.9127 11.7455 13.7616 11.9557 13.6697L15.1104 12.301C15.3579 12.2079 15.6307 12.2079 15.8781 12.301L18.9083 13.6464C19.1185 13.7398 19.117 13.8909 18.9083 13.9827L15.7504 15.3483C15.5028 15.4402 15.2304 15.4402 14.9828 15.3483L11.9557 14.0061Z" fill="white"/>
<path d="M16.5349 16.0319C16.3247 15.9385 16.3247 15.7875 16.5349 15.6956L19.6912 14.3284C19.9387 14.2353 20.2115 14.2353 20.4589 14.3284L23.4876 15.6707C23.6993 15.7641 23.6978 15.9152 23.4876 16.007L20.3328 17.3742C20.0854 17.4673 19.8125 17.4673 19.5651 17.3742L16.5349 16.0319Z" fill="white"/>
<path d="M21.2502 13.989C21.0385 13.8956 21.04 13.7445 21.2502 13.6527L24.4066 12.2855C24.6542 12.1937 24.9266 12.1937 25.1742 12.2855L28.2013 13.6262C28.4115 13.7181 28.4115 13.8707 28.2013 13.961L25.045 15.3297C24.7976 15.4228 24.5247 15.4228 24.2773 15.3297L21.2502 13.989Z" fill="white"/>
<path d="M21.3919 9.9186C21.1802 9.82517 21.1817 9.67413 21.3919 9.58225L24.5483 8.21508C24.7957 8.12199 25.0685 8.12199 25.3159 8.21508L28.3446 9.55423C28.5548 9.64765 28.5548 9.7987 28.3446 9.89057L25.1883 11.2577C24.9406 11.3496 24.6682 11.3496 24.4206 11.2577L21.3919 9.9186Z" fill="white"/>
<path d="M25.9637 11.946C25.7535 11.8526 25.7535 11.7015 25.9637 11.6097L29.1201 10.2409C29.3677 10.1491 29.6401 10.1491 29.8877 10.2409L32.9148 11.5832C33.1266 11.6766 33.125 11.8277 32.9148 11.9195L29.76 13.2883C29.5126 13.3814 29.2398 13.3814 28.9924 13.2883L25.9637 11.946Z" fill="white"/>
</g>
</svg>