<svg xmlns="http://www.w3.org/2000/svg" width="47" height="42" viewBox="0 0 47 42" fill="none">
<g style="mix-blend-mode:luminosity" clip-path="url(#clip0_1_1199)">
<path d="M40.4467 18.5082C40.2989 21.831 39.1691 25.0354 37.2001 27.7162C35.2311 30.3969 32.5114 32.4336 29.385 33.5686C26.2585 34.7036 22.8656 34.8861 19.6355 34.0928C16.4053 33.2996 13.4829 31.5663 11.2379 29.1122C8.99278 26.658 7.52586 23.5933 7.0226 20.3054C6.51935 17.0176 7.00235 13.6543 8.41055 10.641C9.81874 7.62769 12.0889 5.09961 14.9339 3.37648C17.7789 1.65334 21.0709 0.812549 24.3938 0.960418C28.8495 1.1587 33.0439 3.11886 36.0544 6.40969C39.0649 9.70052 40.6448 14.0525 40.4467 18.5082Z" fill="#F70628"/>
<path d="M20.1628 16.3332L20.0507 18.8782L6.83798 18.297C6.82304 17.8747 6.82677 17.4487 6.83798 17.0208C6.8492 16.5929 6.89217 16.1687 6.94262 15.7502L20.1628 16.3332Z" fill="#1C272E"/>
<path d="M20.3065 17.9476L20.1925 20.4945L6.97983 19.9096C6.96675 19.4892 6.96861 19.0613 6.97983 18.6334C6.99104 18.2055 7.03401 17.7832 7.08447 17.3627L20.3065 17.9476Z" fill="#1C272E"/>
<path d="M23.1412 14.0235L22.8404 14.1805L21.1811 15.0438L20.8803 15.2007L20.2823 14.0646L16.463 6.70993L14.7812 3.47169C15.5033 3.02128 16.2592 2.62769 17.0422 2.29449L18.7239 5.52899L22.5526 12.8912L23.1412 14.0235Z" fill="#1C272E"/>
<path d="M21.8989 14.8588L21.598 15.0139L19.9388 15.8791L19.6379 16.0342L19.0456 14.8925L15.2206 7.53964L13.5352 4.30701C14.2576 3.85454 15.0141 3.45908 15.798 3.12421L17.4797 6.36244L21.3065 13.7246L21.8989 14.8588Z" fill="#1C272E"/>
<path d="M33.7365 4.30696L31.7745 7.38449L27.3179 14.373L26.6265 15.4586L26.3406 15.2717L24.7673 14.2702L24.4796 14.0833L25.1728 12.9958L29.6256 6.01109L31.5876 2.93542C32.3387 3.3356 33.0572 3.79419 33.7365 4.30696Z" fill="#1C272E"/>
<path d="M32.5407 3.65113L30.5768 6.73614L26.1203 13.7265L25.4289 14.8102L25.143 14.6234L23.566 13.6162L23.2782 13.4294L23.9714 12.3419L28.4317 5.35153L30.3919 2.2796C31.1425 2.68048 31.861 3.13904 32.5407 3.65113Z" fill="#1C272E"/>
<path d="M40.4462 18.5082C40.4275 18.9355 40.3926 19.359 40.3416 19.7788L27.1289 19.1958L27.241 16.6508L28.5285 16.7069L36.8137 17.0806L40.4537 17.2413C40.4674 17.6536 40.4649 18.0759 40.4462 18.5082Z" fill="#1C272E"/>
<path d="M40.37 17.2226C40.3514 17.6499 40.3165 18.0728 40.2654 18.4913L27.0527 17.9102L27.1648 15.3633L28.4523 15.4213L36.7357 15.795L40.3775 15.9557C40.3906 16.3686 40.3887 16.7947 40.37 17.2226Z" fill="#1C272E"/>
<path d="M32.5141 32.0498C31.7921 32.5002 31.0362 32.8938 30.2531 33.227L28.5714 29.9925L24.7427 22.6303L24.1504 21.4979L24.4512 21.341L26.1087 20.4777L26.4114 20.3207L27.0056 21.4643L30.8287 28.8171L32.5141 32.0498Z" fill="#1C272E"/>
<path d="M33.7534 31.2798C33.0314 31.7302 32.2754 32.1238 31.4924 32.457L29.8107 29.2206L25.982 21.8585L25.3896 20.7224L25.6905 20.5654L27.3479 19.7003L27.6506 19.5452L28.2448 20.6869L32.0698 28.0378L33.7534 31.2798Z" fill="#1C272E"/>
<path d="M22.8163 21.4343L22.1231 22.52L17.6665 29.5103L15.7045 32.586C14.9534 32.1858 14.2349 31.7272 13.5557 31.2144L15.5177 28.1369L19.9742 21.1484L20.6656 20.0628L20.9515 20.2497L22.5285 21.2568L22.8163 21.4343Z" fill="#1C272E"/>
<path d="M24.1191 22.1874L23.4259 23.2749L18.9749 30.2652L17.0073 33.3409C16.2583 32.9373 15.5417 32.4763 14.8641 31.9619L16.8261 28.8843L21.2826 21.894L21.974 20.8083L22.2599 20.9952L23.837 22.0005L24.1191 22.1874Z" fill="#1C272E"/>
<path d="M37.2385 18.3586C37.1941 19.3857 37.033 20.4044 36.7583 21.395C36.0296 23.9916 34.5508 26.3153 32.5073 28.0752C31.6533 28.8108 30.7119 29.4384 29.7045 29.9437C27.995 30.7957 26.1248 31.2771 24.2165 31.3564C23.8315 31.3713 23.441 31.3732 23.0505 31.3564C22.6599 31.3396 22.2731 31.3022 21.892 31.2536C20.7751 31.1103 19.6808 30.8265 18.635 30.409C17.9095 30.1217 17.2105 29.7716 16.546 29.3626C15.5914 28.7713 14.7129 28.0653 13.93 27.2605C12.5982 25.8932 11.566 24.2634 10.8992 22.4751C10.628 21.7472 10.4216 20.9969 10.2825 20.2328C10.0964 19.2226 10.0249 18.1946 10.0695 17.1683C10.0695 17.073 10.0695 16.9815 10.0863 16.8806C10.1292 16.1067 10.2405 15.3383 10.4189 14.5841C10.8639 12.7285 11.6955 10.9877 12.8593 9.4754C14.0204 7.96565 15.4835 6.71451 17.1551 5.80179C18.1386 5.26336 19.1857 4.8503 20.2719 4.57227C21.0235 4.37755 21.7907 4.24876 22.5646 4.18735C23.6814 4.10064 24.8046 4.15021 25.9094 4.33496C26.6721 4.46479 27.4223 4.65984 28.1517 4.91796C29.9542 5.5513 31.6027 6.55798 32.9894 7.87217C33.8028 8.64291 34.5183 9.51084 35.1196 10.4564C36.1449 12.0606 36.8198 13.8632 37.1003 15.7463C37.2185 16.514 37.2673 17.2907 37.246 18.0671C37.2479 18.1661 37.2441 18.2652 37.2385 18.3586Z" fill="#1C272E"/>
<path d="M27.9104 14.7897C27.6582 14.5599 27.3966 14.3188 27.1294 14.0628C25.1879 12.1868 23.6464 9.66982 23.6464 9.67169C23.6464 9.67356 22.1048 12.1868 20.1633 14.0628C19.8961 14.3188 19.6345 14.5599 19.3823 14.7897C18.0743 15.9912 17.0372 16.9404 17.0241 18.7473C17.0052 19.783 17.3669 20.7896 18.0406 21.5764C18.3483 21.9415 18.7307 22.2365 19.1619 22.4415C19.5932 22.6465 20.0634 22.7567 20.5408 22.7648H20.5763C21.07 22.7579 21.5557 22.6392 21.9968 22.4175C22.438 22.1957 22.8231 21.8769 23.1232 21.4848C23.0129 22.0454 22.9195 22.7311 22.7831 23.1665C22.5198 24.036 22.0659 24.8359 21.4545 25.5078H25.8232C25.2118 24.8359 24.758 24.036 24.4947 23.1665C24.3583 22.7367 24.2649 22.0547 24.1565 21.4848C24.4561 21.8769 24.8408 22.1959 25.2817 22.4176C25.7226 22.6393 26.208 22.758 26.7015 22.7648H26.737C27.2169 22.7586 27.6899 22.6493 28.1239 22.4443C28.5578 22.2392 28.9426 21.9432 29.2521 21.5764C29.928 20.7905 30.2917 19.7838 30.2742 18.7473C30.2555 16.9404 29.2203 15.9912 27.9104 14.7897Z" fill="#F70628"/>
</g>
<defs>
<clipPath id="clip0_1_1199">
<rect width="46.7143" height="40.4857" fill="white" transform="translate(0.289062 0.632141)"/>
</clipPath>
</defs>
</svg>