<svg xmlns="http://www.w3.org/2000/svg" width="35" height="40" viewBox="0 0 35 40" fill="none">
<g clip-path="url(#clip0_1_1142)">
<path d="M29.2321 29.2809C29.195 30.3894 28.8306 31.4622 28.185 32.364C27.688 33.0812 27.0137 33.6573 26.2277 34.0362C25.4417 34.415 24.571 34.5836 23.7004 34.5256C21.5366 34.4404 19.9984 33.3394 19.079 31.3864C18.7985 30.7863 18.6538 30.1317 18.6552 29.4692V18.5986H29.1693C32.0036 18.5986 34.0463 20.453 34.4073 23.128C34.8558 26.4152 32.7233 28.8369 29.7972 29.245C29.62 29.2697 29.4406 29.2674 29.2321 29.2809Z" fill="#0A8733"/>
<path d="M6.05983 29.2809C6.09695 30.3895 6.46129 31.4622 7.10698 32.3641C7.60391 33.0813 8.27826 33.6574 9.06423 34.0362C9.85021 34.4151 10.721 34.5837 11.5916 34.5256C13.7554 34.4404 15.2936 33.3395 16.2129 31.3864C16.4934 30.7863 16.6381 30.1317 16.6367 29.4693V18.5987H6.12486C3.29061 18.5987 1.24789 20.4531 0.886881 23.1281C0.438424 26.4153 2.57084 28.837 5.49702 29.2451C5.67192 29.2697 5.8513 29.2675 6.05983 29.2809Z" fill="#00A83C"/>
<path d="M29.2321 5.9118C29.195 4.80326 28.8306 3.7305 28.185 2.82865C27.6877 2.11179 27.0133 1.53592 26.2274 1.15712C25.4415 0.778314 24.5709 0.609491 23.7004 0.66709C21.5366 0.752297 19.9984 1.8555 19.079 3.80629C18.7985 4.40641 18.6538 5.06101 18.6552 5.72344V16.594H29.1693C32.0036 16.594 34.0463 14.7419 34.4073 12.0646C34.8558 8.77744 32.7233 6.35801 29.7972 5.94767C29.62 5.92301 29.4406 5.92525 29.2321 5.9118Z" fill="#089938"/>
<path d="M6.05983 5.9118C6.09695 4.80326 6.46129 3.7305 7.10698 2.82865C7.60422 2.11179 8.27862 1.53592 9.06452 1.15712C9.85042 0.778314 10.721 0.609491 11.5916 0.66709C13.7554 0.752297 15.2936 1.8555 16.2129 3.80629C16.4934 4.40641 16.6381 5.06101 16.6367 5.72344V16.594H6.12486C3.29061 16.594 1.24789 14.7419 0.886881 12.0646C0.438424 8.77744 2.57084 6.35801 5.49702 5.94767C5.67192 5.92301 5.8513 5.92525 6.05983 5.9118Z" fill="#00A83C"/>
<path d="M17.4822 39.3241H15.1368L16.5651 33.6826H18.9105L17.4822 39.3241Z" fill="#0A8733"/>
</g>
<defs>
<clipPath id="clip0_1_1142">
<rect width="34.2571" height="38.9286" fill="white" transform="translate(0.517639 0.410706)"/>
</clipPath>
</defs>
</svg>