<svg width="10" height="10" viewBox="0 0 10 10" fill="none" xmlns="http://www.w3.org/2000/svg">
<path d="M4.99961 6.05001L1.32461 9.72501C1.18711 9.8625 1.01211 9.93126 0.799609 9.93126C0.587109 9.93126 0.412109 9.8625 0.274609 9.72501C0.137109 9.58751 0.0683594 9.41251 0.0683594 9.20001C0.0683594 8.98751 0.137109 8.81251 0.274609 8.67501L3.94961 5.00001L0.274609 1.32501C0.137109 1.18751 0.0683594 1.01251 0.0683594 0.800006C0.0683594 0.587506 0.137109 0.412506 0.274609 0.275006C0.412109 0.137506 0.587109 0.0687561 0.799609 0.0687561C1.01211 0.0687561 1.18711 0.137506 1.32461 0.275006L4.99961 3.95001L8.67461 0.275006C8.81211 0.137506 8.98711 0.0687561 9.19961 0.0687561C9.41211 0.0687561 9.58711 0.137506 9.72461 0.275006C9.86211 0.412506 9.93086 0.587506 9.93086 0.800006C9.93086 1.01251 9.86211 1.18751 9.72461 1.32501L6.04961 5.00001L9.72461 8.67501C9.86211 8.81251 9.93086 8.98751 9.93086 9.20001C9.93086 9.41251 9.86211 9.58751 9.72461 9.72501C9.58711 9.8625 9.41211 9.93126 9.19961 9.93126C8.98711 9.93126 8.81211 9.8625 8.67461 9.72501L4.99961 6.05001Z" fill="white"/>
</svg>
