<svg width="140" height="30" viewBox="0 0 140 30" fill="none" xmlns="http://www.w3.org/2000/svg">
<path d="M5.45481 17.3836C5.45481 21.1644 8.33778 24.0822 11.9881 24.0822C15.8667 24.0822 18.9985 21.0411 18.9985 17.3219C19.0193 13.7466 16.1778 10.6849 12.2163 10.6849C10.723 10.6849 9.81037 11.0548 9.08444 11.4657H9.04296V6.9041C9.04296 6.863 8.98074 6.80136 8.93926 6.80136H5.55852C5.51704 6.80136 5.45481 6.863 5.45481 6.9041V17.3836ZM15.9911 18.4109L11.1378 21.2055C10.4741 21.5753 9.25037 21.3082 9.25037 20.1575V14.5685C9.25037 13.4589 10.2252 12.9863 11.1378 13.5205L15.9911 16.3151C16.8 16.7671 16.7585 17.9383 15.9911 18.4109Z" fill="white"/>
<path d="M40.5481 23.589H41.5437V20.3219H40.4444C39.5319 20.3219 38.9096 19.8288 38.9096 18.8014V14.5685C38.9096 14.4863 38.9719 14.4041 39.0756 14.4041H41.5437V11.1781H39.0756C38.9926 11.1781 38.9096 11.1164 38.9096 11.0137V6.86301C38.9096 6.84246 38.8889 6.80136 38.8474 6.80136H35.3422C35.3215 6.80136 35.28 6.82191 35.28 6.86301V18.9657C35.3215 21.0822 36.8356 23.589 40.5481 23.589Z" fill="white"/>
<path d="M43.0993 23.589H46.7081V6.86301C46.7081 6.84246 46.6874 6.80136 46.6459 6.80136H43.1407C43.12 6.80136 43.0785 6.82191 43.0785 6.86301V23.589H43.0993Z" fill="white"/>
<path d="M48.2844 8.48631C48.2844 9.637 49.2178 10.6233 50.4207 10.6233C51.603 10.6233 52.5778 9.637 52.5778 8.48631C52.5778 7.33563 51.603 6.36987 50.4207 6.36987C49.2385 6.36987 48.2844 7.33563 48.2844 8.48631ZM48.72 11.1781H52.2252C52.2459 11.1781 52.2874 11.1986 52.2874 11.2397V23.5891H48.6785V11.2397C48.6578 11.1986 48.6993 11.1781 48.72 11.1781Z" fill="white"/>
<path d="M62.72 23.5891L67.5526 11.2603C67.5733 11.2192 67.5319 11.1986 67.5111 11.1986H63.9852C63.9644 11.1986 63.9437 11.2192 63.9437 11.2397L60.5215 20.0548H60.4593L57.037 11.2397C57.037 11.2192 57.0163 11.1986 56.9956 11.1986H53.4696C53.4281 11.1986 53.4074 11.2397 53.4282 11.2603L58.2607 23.5891H62.72Z" fill="white"/>
<path d="M83.44 24.0411C84.6015 24.0411 85.5348 23.0753 85.5348 21.9658C85.5348 20.8562 84.6015 19.911 83.44 19.911C82.2785 19.911 81.3659 20.8356 81.3659 21.9658C81.3867 23.0959 82.2993 24.0411 83.44 24.0411Z" fill="white"/>
<path d="M98.4978 20.3425L95.6563 19.1507C95.6356 19.1301 95.5941 19.1507 95.5941 19.1712C94.8889 20.4247 93.2918 21.1438 91.7363 20.774C90.4089 20.4657 89.3926 19.3973 89.1022 18.0822C88.6252 15.9041 90.3259 13.9315 92.5659 13.9315C93.9348 13.9315 95.0756 14.6507 95.6356 15.7192C95.6563 15.7397 95.677 15.7603 95.6978 15.7397L98.5807 14.589C98.6015 14.5685 98.6222 14.5479 98.6015 14.5274C97.523 12.2671 95.2622 10.7055 92.5452 10.7055C88.8119 10.7055 85.8044 13.7055 85.8044 17.4452C85.8044 21.1027 88.7704 24.1233 92.5037 24.1233C95.1378 24.1233 97.4193 22.6027 98.5185 20.4452C98.5185 20.3836 98.5185 20.3425 98.4978 20.3425Z" fill="white"/>
<path d="M99.6593 17.4041C99.6593 21.0616 102.625 24.0822 106.359 24.0822C110.092 24.0822 113.099 21.0822 113.099 17.3425C113.099 13.6849 110.133 10.6849 106.4 10.6849C102.667 10.6849 99.6593 13.6849 99.6593 17.4041ZM109.864 17.4041C109.864 19.3356 108.329 20.8562 106.379 20.8562C104.409 20.8562 102.874 19.3356 102.874 17.3425C102.874 15.411 104.409 13.8904 106.359 13.8904C108.35 13.911 109.864 15.4315 109.864 17.4041Z" fill="white"/>
<path d="M122.619 16.1096V23.589H126V16.1507C126 14.9178 127.058 13.911 128.219 13.911C129.381 13.911 130.418 14.8973 130.418 16.1507V23.589H133.778V15.9863C133.778 12.7397 131.517 10.6849 128.551 10.6849C126.664 10.6849 125.274 11.548 124.32 12.8014C123.407 11.5685 121.997 10.6849 120.13 10.6849C117.164 10.6849 114.904 12.7397 114.904 15.9863V23.589H118.222V16.1096C118.222 14.8767 119.218 13.8699 120.379 13.8699C121.541 13.8699 122.619 14.8767 122.619 16.1096Z" fill="white"/>
<path d="M29.7215 20.1164C29.68 20.1164 29.6593 20.137 29.6385 20.1575C29.037 20.7123 28.0415 21.1438 26.9007 21.1438C25.3037 21.1438 23.9556 20.1781 23.4163 18.8425H33.3511C33.4548 18.8425 33.5378 18.7808 33.5378 18.6781C33.9111 14.1164 31.2148 10.6849 26.9007 10.6849C22.6074 10.6849 20.2015 14.1575 20.2015 17.3219C20.2015 21.0822 23.1674 24.0822 26.9007 24.0822C28.9541 24.0822 31.92 22.9521 33.1852 20.3014C33.2267 20.2192 33.1644 20.1164 33.0607 20.1164H29.7215ZM26.88 13.6027C28.4356 13.6027 29.763 14.5685 30.3644 15.9247H23.4163C23.9348 14.5685 25.283 13.6027 26.88 13.6027Z" fill="white"/>
<path d="M76.6163 20.1164C76.5748 20.1164 76.5541 20.137 76.5333 20.1575C75.9319 20.7123 74.9363 21.1438 73.7956 21.1438C72.2815 21.1438 70.9748 20.2808 70.3941 19.0479C70.3526 18.9657 70.4148 18.863 70.5185 18.863H80.2459C80.3496 18.863 80.4326 18.8014 80.4326 18.6986C80.8059 14.137 78.1096 10.7055 73.7956 10.7055C69.5022 10.7055 67.0963 14.1781 67.0963 17.3425C67.0963 21.1027 70.0622 24.1027 73.7956 24.1027C75.8489 24.1027 78.8148 22.9726 80.08 20.3219C80.1215 20.2397 80.0593 20.137 79.9556 20.137H76.6163V20.1164ZM73.7748 13.6027C75.2682 13.6027 76.5333 14.4657 77.1556 15.7397C77.197 15.8219 77.1348 15.9247 77.0311 15.9247H70.4978C70.3941 15.9247 70.3319 15.8219 70.3733 15.7397C70.9541 14.4657 72.2607 13.6027 73.7748 13.6027Z" fill="white"/>
</svg>
