<svg width="97" height="41" viewBox="0 0 97 41" fill="none" xmlns="http://www.w3.org/2000/svg">
<g clip-path="url(#clip0_1_3435)">
<path d="M42.0295 3.36421V11.2608L46.5988 3.36421H53.7315V22.4687H47.0582L47.0593 14.5721L42.4844 22.4687H36.1812V14.5721L31.6063 22.4687H23.7053L34.7674 3.36421H42.0295Z" fill="#D6D6D6"/>
<path d="M18.9642 3.36421L7.90211 22.4687H0L11.0621 3.36421H18.9642Z" fill="#0066B1"/>
<path d="M26.8651 3.36421L15.8031 22.4687H7.9021L18.9642 3.36421H26.8651Z" fill="#003D78"/>
<path d="M34.7671 3.36421L23.7051 22.4687H15.803L26.865 3.36421H34.7671Z" fill="#E22718"/>
</g>
<path d="M81.1039 3.36421H70.7406L60.8955 13.2275V19.1809H79.4631V22.4687H88.3582V9.49542H79.4631V13.2275H72.4679V11.8057L81.1039 3.36421Z" fill="#D6D6D6"/>
<g clip-path="url(#clip1_1_3435)">
<path d="M16.0339 31.1757C15.905 31.5001 15.8369 31.7543 15.7107 31.9761C15.1149 33.0238 14.4972 34.0582 13.9019 35.1059C13.7188 35.4281 13.4664 35.5143 13.1128 35.5127C9.75994 35.4983 6.40652 35.4973 3.05364 35.4936C2.25549 35.4925 1.4568 35.4973 0.658649 35.4957C0.466432 35.4952 0.273683 35.4781 0 35.4654C0.0569729 35.2207 0.061765 35.0032 0.154945 34.8346C0.798153 33.6721 1.46266 32.5212 2.11439 31.3634C2.21342 31.1874 2.34547 31.1055 2.54461 31.1209C2.61543 31.1262 2.68625 31.1225 2.75759 31.123C6.89106 31.1321 11.0251 31.1406 15.1585 31.1507C15.4178 31.1512 15.6771 31.1651 16.0339 31.1757Z" fill="#D6D6D6"/>
<path d="M34.6742 31.1815C35.7173 31.0704 43.2862 31.1278 43.7467 31.2491C43.9028 31.5496 43.8 31.8389 43.652 32.1011C43.0689 33.1354 42.4763 34.1645 41.8693 35.1851C41.79 35.318 41.61 35.4638 41.4678 35.4733C40.9588 35.5079 40.4455 35.4872 39.9194 35.4872C39.8806 35.1112 40.0137 34.8266 40.1708 34.5506C40.495 33.981 40.8252 33.4141 41.1478 32.8435C41.2335 32.6919 41.3502 32.4749 41.4252 32.3186C41.1058 32.2654 40.2006 32.2122 39.9674 32.2654C39.8284 32.3558 39.7214 32.5132 39.634 32.6611C39.1756 33.4402 38.7145 34.2182 38.2843 35.0128C38.1011 35.351 37.87 35.5068 37.4856 35.4882C37.0655 35.4675 36.6438 35.4834 36.204 35.4834C36.1752 35.0766 36.3429 34.7852 36.5053 34.4964C36.8349 33.9093 37.1752 33.328 37.5053 32.7414C37.5804 32.6084 37.6331 32.4627 37.738 32.2314C37.2412 32.2314 36.8195 32.1925 36.4116 32.25C36.2434 32.2734 36.0607 32.4776 35.9601 32.6446C35.5112 33.3881 35.0629 34.1337 34.6694 34.9069C34.4437 35.3505 34.2371 35.4834 33.6625 35.4925C33.252 35.4925 32.9863 35.4834 32.5332 35.4834C32.5332 35.2436 32.5332 35.0575 32.6354 34.8235C33.3085 33.5987 33.9991 32.3829 34.6742 31.1815Z" fill="#D6D6D6"/>
<path d="M42.3303 36.788C42.5167 36.4136 42.6 36.2275 42.7398 35.9706C43.4932 34.5863 44.2621 33.2104 45.0192 31.8288C45.2844 31.3453 45.6624 31.1395 46.2306 31.1486C47.9674 31.1752 49.7054 31.172 51.4423 31.1512C52.1164 31.1433 52.3022 31.3868 51.9795 31.9899C51.4375 33.0046 50.8486 33.9949 50.2735 34.992C50.0446 35.3893 49.666 35.5127 49.2336 35.5132C48.1698 35.5138 47.1059 35.5116 46.0421 35.5095C44.8861 35.5074 45.0767 35.3665 44.524 36.3663C44.3616 36.6604 44.1939 36.7949 43.8122 36.7949C43.342 36.788 42.8756 36.788 42.3303 36.788ZM49.6628 32.3409C49.4796 32.2904 49.4152 32.258 49.3497 32.2569C48.6612 32.2441 47.9728 32.2393 47.2848 32.2266C46.9973 32.2213 46.8275 32.3867 46.6986 32.6105C46.4265 33.0844 46.1566 33.5604 45.8951 34.0401C45.8179 34.1818 45.7844 34.2863 45.7844 34.4065C46.623 34.4065 47.4142 34.4166 48.2044 34.3969C48.3418 34.3932 48.5324 34.2964 48.6021 34.1831C48.9605 33.6013 49.2879 33.0004 49.6628 32.3409Z" fill="#D6D6D6"/>
<path d="M53.9444 34.3858C55.5561 34.3858 57.1242 34.3858 58.7035 34.3858C58.8105 34.783 58.6667 35.0894 58.4852 35.3601C58.417 35.4616 58.2093 35.5058 58.0629 35.5116C57.514 35.5324 56.9645 35.5292 56.415 35.5292C54.9262 35.5297 53.4369 35.5271 51.9482 35.5244C51.8071 35.5239 51.6665 35.5116 51.5196 35.5042C51.3279 35.1734 51.4466 34.874 51.6021 34.5964C52.1212 33.6699 52.6606 32.7547 53.1798 31.8282C53.4284 31.3847 53.7825 31.1549 54.2953 31.1571C56.1386 31.164 57.982 31.1608 59.8253 31.172C60.3109 31.1746 60.4302 31.3384 60.2561 31.8102C60.1219 32.1718 59.9228 32.5122 59.7311 32.8499C59.5288 33.2493 59.3925 33.6194 59.0975 33.7954C58.8366 33.914 58.3749 33.8534 58.0038 33.8513C56.8873 33.8449 55.7702 33.8396 54.6541 33.8157C54.2862 33.8066 54.029 33.9013 53.9444 34.3858ZM54.8506 32.8079C55.7355 32.8079 56.5614 32.8137 57.3872 32.8047C57.6742 32.8015 57.8388 32.6589 57.7962 32.3069C56.9559 32.3069 56.129 32.3085 55.3016 32.3058C55.0093 32.3053 54.9124 32.4834 54.8506 32.8079Z" fill="#D6D6D6"/>
<path d="M78.5455 35.51C78.4582 35.1511 78.5583 34.8692 78.7058 34.6033C79.1967 33.7205 79.7015 32.8451 80.1855 31.9585C80.4581 31.4597 80.8297 31.231 81.4245 31.2411C83.3935 31.2741 85.3636 31.2597 87.3332 31.2661C87.4546 31.2666 87.576 31.2879 87.6942 31.2991C87.8789 31.5421 87.8385 31.7825 87.7309 32.0133C87.6186 32.2537 87.486 32.4845 87.3555 32.7158C86.9466 33.4418 86.5222 34.1587 86.1293 34.8931C85.8966 35.3287 85.5734 35.56 85.0724 35.5552C84.4515 35.5499 83.8307 35.5701 83.2093 35.5696C81.9138 35.5685 80.6184 35.5632 79.3234 35.5537C79.062 35.5515 78.8 35.5249 78.5455 35.51ZM80.9953 34.4501C81.2387 34.4634 81.4266 34.481 81.6146 34.4831C82.1098 34.4879 82.6055 34.4932 83.1007 34.4863C84.5085 34.4666 84.1161 34.7001 84.8344 33.4716C85.0356 33.1275 85.2624 32.7935 85.387 32.3952C85.2997 32.3659 85.2523 32.3372 85.2049 32.3367C84.2849 32.326 83.3653 32.3239 82.4452 32.3079C82.1976 32.3037 82.0459 32.4244 81.9335 32.618C81.6774 33.0615 81.4213 33.5051 81.1764 33.955C81.104 34.089 81.0694 34.2432 80.9953 34.4501Z" fill="#D6D6D6"/>
<path d="M23.9346 35.4074C23.8579 35 23.9921 34.7049 24.1454 34.4288C24.6428 33.5317 25.1587 32.6451 25.6635 31.7522C25.8914 31.3485 26.2119 31.1369 26.6948 31.1395C28.6958 31.1512 30.6973 31.1416 32.6988 31.1502C33.2111 31.1523 33.3346 31.3507 33.1536 31.8176C33.1152 31.9165 33.0705 32.0138 33.0172 32.1053C32.4933 33.0078 31.9619 33.9066 31.4433 34.8123C31.2005 35.2361 30.8576 35.4398 30.3619 35.4409C28.3609 35.4457 26.3599 35.4664 24.359 35.476C24.2226 35.4765 24.0863 35.4329 23.9346 35.4074ZM26.336 34.2842C26.4201 34.3448 26.4478 34.3815 26.4755 34.382C27.4286 34.3906 28.3811 34.398 29.3342 34.398C29.544 34.398 29.6915 34.2906 29.7937 34.0965C30.0483 33.6125 30.2549 33.1814 30.4977 32.6908C30.5898 32.5047 30.643 32.4107 30.7011 32.2665C30.7229 32.2122 30.5493 32.2276 30.4977 32.2271C29.8965 32.2228 29.2959 32.217 28.6948 32.2202C28.3242 32.2218 27.8476 32.1856 27.6022 32.2803C27.3013 32.4521 27.1347 32.8733 26.9345 33.2009C26.7177 33.5561 26.5308 33.9284 26.336 34.2842Z" fill="#D6D6D6"/>
<path d="M96.0372 31.2927C96.238 31.6304 96.1752 31.9096 96.0362 32.1606C95.4452 33.2296 94.8451 34.2938 94.2322 35.35C94.1635 35.4686 93.9958 35.5967 93.868 35.6031C93.3238 35.6313 92.7775 35.6148 92.2328 35.6148C92.1269 35.2292 92.2983 34.9718 92.4426 34.7166C92.7728 34.1305 93.1173 33.5524 93.4538 32.9701C93.5485 32.8057 93.6364 32.6371 93.7477 32.434C93.614 32.3962 93.5331 32.3537 93.4522 32.3531C92.7259 32.3468 91.9991 32.3505 91.2723 32.3452C90.9576 32.343 90.8 32.5398 90.6637 32.7823C90.2308 33.5545 89.7686 34.3113 89.3677 35.0995C89.168 35.492 89.0296 35.5893 88.5211 35.5893C87.9886 35.5893 87.6527 35.5994 87.2086 35.5893C87.1692 35.258 87.2826 34.9968 87.4088 34.7719C88.0147 33.6912 88.6372 32.6196 89.2351 31.5347C89.364 31.3007 89.5423 31.2751 89.7617 31.2741C90.5593 31.2698 91.3569 31.2587 92.154 31.2581C93.2706 31.2571 94.3872 31.2629 95.5037 31.2682C95.68 31.2693 95.8551 31.2842 96.0372 31.2927Z" fill="#D6D6D6"/>
<path d="M18.1663 34.3672C19.7349 34.3916 21.2306 34.4156 22.7699 34.4395C22.7459 34.6177 22.7443 34.7549 22.7081 34.882C22.5596 35.4042 22.4792 35.4755 21.9249 35.4866C21.0213 35.5053 20.1172 35.5069 19.2136 35.5111C18.31 35.5159 17.4059 35.5154 16.5023 35.517C16.2915 35.5175 16.0806 35.517 15.9023 35.517C15.6493 35.2202 15.6829 34.9484 15.8304 34.6868C16.4038 33.6694 16.9784 32.652 17.5683 31.6442C17.7563 31.3235 18.0459 31.139 18.4447 31.1401C20.4644 31.1464 22.484 31.1443 24.5036 31.147C24.5547 31.147 24.6058 31.1683 24.7197 31.1938C24.6782 31.3778 24.6532 31.5634 24.593 31.7368C24.4562 32.1324 24.3598 32.2064 23.9354 32.209C22.7129 32.2181 21.4899 32.2154 20.2668 32.2191C20.0544 32.2197 19.8387 32.2096 19.63 32.2399C19.5001 32.2585 19.3249 32.309 19.2647 32.4047C18.884 33.0163 18.4799 33.6162 18.1663 34.3672Z" fill="#D6D6D6"/>
<path d="M60.2203 35.451C60.1287 35.0532 60.2853 34.7155 60.4663 34.389C60.732 33.9093 61.0105 33.4365 61.2794 32.9584C61.3822 32.7754 61.6532 32.3707 61.7613 32.1638C61.5786 32.1638 61.3923 32.1638 61.0733 32.1638C61.1047 31.9984 61.133 31.8293 61.1702 31.6623C61.24 31.3485 61.3923 31.1853 61.7613 31.1853C62.4039 31.1853 62.3716 31.0898 62.6286 30.571C62.8299 30.1647 62.8299 30.0897 63.3831 30.0823C63.8948 30.0823 64.292 30.0897 64.816 30.0897C64.7068 30.4859 64.62 30.8013 64.5178 31.173C65.2584 31.173 65.9602 31.173 66.6588 31.173C66.7642 31.5634 66.6189 31.8575 66.433 32.1074C66.3494 32.2202 66.1311 32.2776 65.9719 32.2813C65.4235 32.2946 64.8729 32.292 64.3256 32.2579C63.9619 32.2351 63.7212 32.351 63.5477 32.6722C63.2484 33.2269 62.9279 33.7704 62.5759 34.389C63.365 34.5363 64.0716 34.3687 64.8383 34.4911C64.7664 34.7708 64.718 35.0053 64.6456 35.2319C64.5785 35.4414 64.4204 35.5287 64.1967 35.5271C62.9215 35.5164 61.6463 35.5116 60.3705 35.5021C60.3204 35.5021 60.272 35.4696 60.2203 35.451Z" fill="#D6D6D6"/>
<path d="M69.6539 35.4813C69.5815 35.0894 69.6752 34.7963 69.8413 34.5124C70.1714 33.9465 70.4941 33.3764 70.8162 32.8057C70.8849 32.6845 71.0298 32.4249 71.1629 32.2505C70.8966 32.2505 70.8434 32.2505 70.5367 32.2106C70.4451 31.8628 70.6027 31.59 70.7816 31.3608C70.8684 31.2496 71.0958 31.2028 71.2582 31.2055C71.6304 31.2124 71.8503 31.0507 71.9802 30.7151C72.0372 30.5678 72.1165 30.4248 72.2097 30.2971C72.2661 30.22 72.3678 30.1275 72.4514 30.1253C73.0137 30.1105 73.576 30.1174 74.2256 30.1174C74.1292 30.5099 74.0531 30.8226 73.9588 31.2071C74.6856 31.2071 75.3847 31.2071 76.1488 31.2071C76.1115 31.4512 76.1014 31.6214 76.0583 31.7825C75.9454 32.2026 75.8213 32.3058 75.3869 32.3106C74.8374 32.3165 74.2863 32.3207 73.7384 32.2872C73.347 32.2633 73.109 32.4143 72.937 32.7547C72.7613 33.102 72.5419 33.4264 72.3545 33.7678C72.2555 33.9476 72.1836 34.1422 72.0776 34.3767C72.8247 34.5512 73.536 34.372 74.2522 34.5155C74.2245 34.6948 74.2155 34.8336 74.1803 34.9649C74.0408 35.4866 73.9854 35.5345 73.4535 35.5345C72.354 35.535 71.255 35.5281 70.1555 35.5207C70.0005 35.5196 69.8445 35.4968 69.6539 35.4813Z" fill="#D6D6D6"/>
<path d="M65.6025 35.5191C65.7852 35.1372 65.8091 35.0739 65.8917 34.9245C66.5833 33.6726 67.1163 32.5579 67.9012 31.1688C68.5289 31.1603 69.1354 31.1507 69.8558 31.1938C69.7073 31.573 69.5665 31.866 69.4325 32.1058C68.8463 33.1551 68.3133 34.1683 67.7159 35.2112C67.6275 35.3659 67.5471 35.5217 67.3277 35.5201C66.7819 35.5159 66.2356 35.5191 65.6025 35.5191Z" fill="#D6D6D6"/>
<path d="M75.0449 35.5435C75.1514 35.2308 75.1951 35.0027 75.301 34.8091C75.9224 33.6763 76.555 32.5489 77.196 31.4267C77.2567 31.3198 77.3994 31.19 77.5043 31.19C78.065 31.1879 78.6262 31.2236 79.278 31.2501C79.1353 31.6049 78.9462 31.9835 78.8035 32.2388C78.2237 33.2737 77.7258 34.2055 77.146 35.2404C77.0273 35.4526 76.8894 35.5515 76.6476 35.5467C76.1535 35.5366 75.6594 35.5435 75.0449 35.5435Z" fill="#D6D6D6"/>
<path d="M77.8409 30.696C77.8084 30.3508 77.9335 30.0812 78.0794 29.8222C78.1172 29.7547 78.2088 29.677 78.2791 29.6744C78.8728 29.6499 79.4681 29.619 80.0724 29.6994C80.1097 30.1094 79.9414 30.3955 79.7519 30.6683C79.7077 30.7316 79.606 30.7907 79.5304 30.7912C78.9691 30.7938 78.4053 30.8289 77.8409 30.696Z" fill="#D6D6D6"/>
<path d="M70.6156 29.6903C70.6901 30.0174 70.5789 30.3046 70.4 30.5364C70.2993 30.6667 70.0789 30.7635 69.909 30.7699C69.4362 30.788 68.9613 30.7508 68.5033 30.7359C68.2989 30.1126 68.6098 29.6382 69.1886 29.6345C69.5944 29.6313 70.0001 29.6377 70.4058 29.6451C70.4734 29.6451 70.5405 29.6728 70.6156 29.6903Z" fill="#D6D6D6"/>
</g>
<defs>
<clipPath id="clip0_1_3435">
<rect width="53.7314" height="19.1045" fill="white" transform="translate(0 3.36421)"/>
</clipPath>
<clipPath id="clip1_1_3435">
<rect width="96.1655" height="7.16418" fill="white" transform="translate(0 29.6329)"/>
</clipPath>
</defs>
</svg>
