<svg width="15" height="15" viewBox="0 0 15 15" fill="none" xmlns="http://www.w3.org/2000/svg">
<path d="M6.90139 11.1H8.34139V6.78005H6.90139V11.1ZM7.62139 5.34005C7.82539 5.34005 7.99651 5.27093 8.13475 5.13269C8.27251 4.99493 8.34139 4.82405 8.34139 4.62005C8.34139 4.41605 8.27251 4.24493 8.13475 4.10669C7.99651 3.96893 7.82539 3.90005 7.62139 3.90005C7.41739 3.90005 7.24651 3.96893 7.10875 4.10669C6.97051 4.24493 6.90139 4.41605 6.90139 4.62005C6.90139 4.82405 6.97051 4.99493 7.10875 5.13269C7.24651 5.27093 7.41739 5.34005 7.62139 5.34005ZM7.62139 14.7C6.62539 14.7 5.68939 14.5109 4.81339 14.1327C3.93739 13.7549 3.17539 13.242 2.52739 12.594C1.87939 11.946 1.36651 11.184 0.988747 10.308C0.610507 9.43205 0.421387 8.49605 0.421387 7.50005C0.421387 6.50405 0.610507 5.56805 0.988747 4.69205C1.36651 3.81605 1.87939 3.05405 2.52739 2.40605C3.17539 1.75805 3.93739 1.24493 4.81339 0.866689C5.68939 0.488929 6.62539 0.300049 7.62139 0.300049C8.61739 0.300049 9.55339 0.488929 10.4294 0.866689C11.3054 1.24493 12.0674 1.75805 12.7154 2.40605C13.3634 3.05405 13.8763 3.81605 14.254 4.69205C14.6323 5.56805 14.8214 6.50405 14.8214 7.50005C14.8214 8.49605 14.6323 9.43205 14.254 10.308C13.8763 11.184 13.3634 11.946 12.7154 12.594C12.0674 13.242 11.3054 13.7549 10.4294 14.1327C9.55339 14.5109 8.61739 14.7 7.62139 14.7ZM7.62139 13.26C9.22939 13.26 10.5914 12.702 11.7074 11.586C12.8234 10.47 13.3814 9.10805 13.3814 7.50005C13.3814 5.89205 12.8234 4.53005 11.7074 3.41405C10.5914 2.29805 9.22939 1.74005 7.62139 1.74005C6.01339 1.74005 4.65139 2.29805 3.53539 3.41405C2.41939 4.53005 1.86139 5.89205 1.86139 7.50005C1.86139 9.10805 2.41939 10.47 3.53539 11.586C4.65139 12.702 6.01339 13.26 7.62139 13.26Z" fill="black"/>
</svg>
