<svg width="9" height="9" viewBox="0 0 9 9" fill="none" xmlns="http://www.w3.org/2000/svg">
<path d="M4.25003 4.37503C3.68592 4.37503 3.20302 4.17417 2.80131 3.77246C2.3996 3.37075 2.19874 2.88785 2.19874 2.32374C2.19874 1.75964 2.3996 1.27673 2.80131 0.875025C3.20302 0.473316 3.68592 0.272461 4.25003 0.272461C4.81413 0.272461 5.29703 0.473316 5.69874 0.875025C6.10045 1.27673 6.30131 1.75964 6.30131 2.32374C6.30131 2.88785 6.10045 3.37075 5.69874 3.77246C5.29703 4.17417 4.81413 4.37503 4.25003 4.37503ZM0.147461 7.45195L0.147461 7.04169C0.147461 6.75109 0.222247 6.484 0.37182 6.24041C0.521393 5.99682 0.720111 5.81092 0.967974 5.68272C1.49789 5.41776 2.03635 5.21904 2.58336 5.08656C3.13037 4.95408 3.68592 4.88785 4.25003 4.88785C4.81413 4.88785 5.36968 4.95408 5.91669 5.08656C6.4637 5.21904 7.00216 5.41776 7.53208 5.68272C7.77994 5.81092 7.97866 5.99682 8.12823 6.24041C8.2778 6.484 8.35259 6.75109 8.35259 7.04169V7.45195C8.35259 7.734 8.25216 7.97545 8.05131 8.17631C7.85045 8.37716 7.609 8.47759 7.32695 8.47759L1.1731 8.47759C0.891051 8.47759 0.649598 8.37716 0.448743 8.17631C0.247888 7.97545 0.147461 7.734 0.147461 7.45195Z" fill="black"/>
</svg>
