<svg width="22" height="16" viewBox="0 0 22 16" fill="none" xmlns="http://www.w3.org/2000/svg">
<mask id="mask0_5_4968" style="mask-type:luminance" maskUnits="userSpaceOnUse" x="0" y="0" width="22" height="16">
<path d="M0 0H21.3312V16H0V0Z" fill="white"/>
</mask>
<g mask="url(#mask0_5_4968)">
<path d="M-5.33435 0H26.6656V16H-5.33435V0Z" fill="#012169"/>
<path d="M-5.33435 0V1.7875L23.0875 16H26.6656V14.2125L-1.75623 0H-5.33435ZM26.6656 0V1.7875L-1.75623 16H-5.33435V14.2125L23.0875 0H26.6656Z" fill="white"/>
<path d="M8.00002 0V16H13.3313V0H8.00002ZM-5.33435 5.33437V10.6656H26.6656V5.33437H-5.33435Z" fill="white"/>
<path d="M-5.33435 6.4V9.6H26.6656V6.4H-5.33435ZM9.06565 0V16H12.2656V0H9.06565ZM-5.33435 16L5.33127 10.6656H7.71877L-2.94998 16H-5.33435ZM-5.33435 0L5.33127 5.33437H2.9469L-5.33435 1.19375V0ZM13.6157 5.33437L24.2813 0H26.6656L16 5.33437H13.6157ZM26.6656 16L16 10.6656H18.3844L26.6656 14.8062V16Z" fill="#C8102E"/>
</g>
</svg>
