<svg width="22" height="16" viewBox="0 0 22 16" fill="none" xmlns="http://www.w3.org/2000/svg">
<path d="M0 0H21.3333V16H0V0Z" fill="white"/>
<path d="M9.06665 0H12.2667V16H9.06665V0Z" fill="#FF0000"/>
<path d="M0 6.40002H21.3333V9.60002H0V6.40002Z" fill="#FF0000"/>
<g style="mix-blend-mode:multiply">
<path fill-rule="evenodd" clip-rule="evenodd" d="M4.8933 12.4367C4.92663 11.8767 5.02663 11.4 5.02663 11.4C5.02663 11.4 4.69997 11.4333 4.5333 11.4333C4.36997 11.4333 4.03997 11.4 4.03997 11.4C4.03997 11.4 4.13997 11.8767 4.1733 12.44C3.60997 12.4067 3.1333 12.3067 3.1333 12.3067C3.1333 12.3067 3.16663 12.5533 3.16663 12.8C3.16663 13.0467 3.1333 13.2933 3.1333 13.2933C3.1333 13.2933 3.60997 13.1933 4.1733 13.16C4.13997 13.7233 4.03997 14.2 4.03997 14.2C4.03997 14.2 4.28663 14.1667 4.5333 14.1667C4.77997 14.1667 5.02663 14.2 5.02663 14.2C5.02663 14.2 4.92663 13.7233 4.8933 13.16C5.45663 13.1933 5.9333 13.2933 5.9333 13.2933C5.9333 13.2933 5.89997 12.9667 5.89997 12.8C5.89997 12.6367 5.9333 12.3067 5.9333 12.3067C5.9333 12.3067 5.45663 12.4067 4.89663 12.44L4.8933 12.4367ZM17.2933 2.83665C17.3266 2.27665 17.4266 1.79999 17.4266 1.79999C17.4266 1.79999 17.1 1.83332 16.9333 1.83332C16.77 1.83332 16.44 1.79999 16.44 1.79999C16.44 1.79999 16.54 2.27665 16.5733 2.83665C16.01 2.80332 15.4 2.70665 15.4 2.70665C15.4 2.70665 15.4333 2.95332 15.4333 3.19999C15.4333 3.44665 15.4 3.69332 15.4 3.69332C15.4 3.69332 15.8766 3.59332 16.5733 3.55999C16.54 4.12332 16.44 4.59999 16.44 4.59999C16.44 4.59999 16.6866 4.56665 16.9333 4.56665C17.18 4.56665 17.4266 4.59999 17.4266 4.59999C17.4266 4.59999 17.3266 4.12332 17.2933 3.56332C17.8566 3.59665 18.3333 3.69665 18.3333 3.69665C18.3333 3.69665 18.3 3.36332 18.3 3.19999C18.3 3.03665 18.3333 2.70665 18.3333 2.70665C18.3333 2.70665 17.8566 2.80665 17.2933 2.83999V2.83665ZM4.8933 2.83665C4.92663 2.27665 5.02663 1.79999 5.02663 1.79999C5.02663 1.79999 4.69997 1.83332 4.5333 1.83332C4.36997 1.83332 4.03997 1.79999 4.03997 1.79999C4.03997 1.79999 4.13997 2.27665 4.1733 2.83999C3.60997 2.80665 3.1333 2.70665 3.1333 2.70665C3.1333 2.70665 3.16663 2.95332 3.16663 3.19999C3.16663 3.44665 3.1333 3.69332 3.1333 3.69332C3.1333 3.69332 3.60997 3.59332 4.1733 3.55999C4.13997 4.12332 4.03997 4.59999 4.03997 4.59999C4.03997 4.59999 4.28663 4.56665 4.5333 4.56665C4.77997 4.56665 5.02663 4.59999 5.02663 4.59999C5.02663 4.59999 4.92663 4.12332 4.8933 3.55999C5.45663 3.59332 5.9333 3.69332 5.9333 3.69332C5.9333 3.69332 5.89997 3.36665 5.89997 3.19999C5.89997 3.03665 5.9333 2.70665 5.9333 2.70665C5.9333 2.70665 5.45663 2.80665 4.89663 2.83999L4.8933 2.83665ZM17.2266 12.4367C17.26 11.8767 17.36 11.4 17.36 11.4C17.36 11.4 17.0333 11.4333 16.8666 11.4333C16.7033 11.4333 16.3733 11.4 16.3733 11.4C16.3733 11.4 16.4733 11.8767 16.5066 12.44C15.9433 12.4067 15.4 12.3067 15.4 12.3067C15.4 12.3067 15.4333 12.5533 15.5 12.8333C15.5666 13.1133 15.4666 13.3267 15.4666 13.3267C15.4666 13.3267 15.9433 13.2267 16.5066 13.1933C16.4733 13.7567 16.3733 14.2333 16.3733 14.2333C16.3733 14.2333 16.62 14.2 16.8666 14.2C17.1133 14.2 17.36 14.2333 17.36 14.2333C17.36 14.2333 17.26 13.7567 17.2266 13.1933C17.79 13.2267 18.2666 13.3267 18.2666 13.3267C18.2666 13.3267 18.2333 13 18.2333 12.8333C18.2333 12.67 18.2666 12.34 18.2666 12.34C18.2666 12.34 17.79 12.4033 17.2266 12.4367Z" fill="#FF0000"/>
</g>
</svg>
